<svg xmlns="http://www.w3.org/2000/svg" viewBox="0 0 800 500">
  <!-- Background -->
  <rect width="800" height="500" fill="#f9f9f9"/>
  
  <!-- Title -->
  <text x="400" y="30" font-family="Arial" font-size="22" font-weight="bold" text-anchor="middle">Query Parsing to LSM-Tree Storage Flow</text>
  
  <!-- Parsing Stage -->
  <rect x="50" y="70" width="200" height="130" fill="#e1f5fe" stroke="#0288d1" stroke-width="2" rx="10"/>
  <text x="150" y="95" font-family="Arial" font-size="16" font-weight="bold" text-anchor="middle">Query Parsing</text>
  
  <!-- Lexer -->
  <rect x="70" y="110" width="160" height="30" fill="#b3e5fc" stroke="#0288d1" stroke-width="1" rx="5"/>
  <text x="150" y="130" font-family="Arial" font-size="14" text-anchor="middle">Lexical Analysis</text>
  
  <!-- Parser -->
  <rect x="70" y="150" width="160" height="30" fill="#b3e5fc" stroke="#0288d1" stroke-width="1" rx="5"/>
  <text x="150" y="170" font-family="Arial" font-size="14" text-anchor="middle">Syntactic Analysis</text>
  
  <!-- Key-Value Translation -->
  <rect x="300" y="70" width="200" height="130" fill="#e8f5e9" stroke="#388e3c" stroke-width="2" rx="10"/>
  <text x="400" y="95" font-family="Arial" font-size="16" font-weight="bold" text-anchor="middle">Key-Value Translation</text>
  
  <!-- Key Generation -->
  <rect x="320" y="110" width="160" height="30" fill="#c8e6c9" stroke="#388e3c" stroke-width="1" rx="5"/>
  <text x="400" y="130" font-family="Arial" font-size="14" text-anchor="middle">Key Generation</text>
  
  <!-- Value Serialization -->
  <rect x="320" y="150" width="160" height="30" fill="#c8e6c9" stroke="#388e3c" stroke-width="1" rx="5"/>
  <text x="400" y="170" font-family="Arial" font-size="14" text-anchor="middle">Value Serialization</text>
  
  <!-- LSM-Tree Storage -->
  <rect x="550" y="70" width="200" height="350" fill="#fff3e0" stroke="#f57c00" stroke-width="2" rx="10"/>
  <text x="650" y="95" font-family="Arial" font-size="16" font-weight="bold" text-anchor="middle">LSM-Tree Storage</text>
  
  <!-- MemTable -->
  <rect x="570" y="110" width="160" height="40" fill="#ffe0b2" stroke="#f57c00" stroke-width="1" rx="5"/>
  <text x="650" y="135" font-family="Arial" font-size="14" text-anchor="middle">MemTable (In Memory)</text>
  
  <!-- WAL -->
  <rect x="570" y="160" width="160" height="30" fill="#ffe0b2" stroke="#f57c00" stroke-width="1" rx="5"/>
  <text x="650" y="180" font-family="Arial" font-size="14" text-anchor="middle">Write-Ahead Log</text>
  
  <!-- L0 SSTables -->
  <rect x="570" y="210" width="160" height="40" fill="#ffe0b2" stroke="#f57c00" stroke-width="1" rx="5"/>
  <text x="650" y="235" font-family="Arial" font-size="14" text-anchor="middle">Level 0 SSTables</text>
  
  <!-- L1 SSTables -->
  <rect x="570" y="260" width="160" height="40" fill="#ffe0b2" stroke="#f57c00" stroke-width="1" rx="5"/>
  <text x="650" y="285" font-family="Arial" font-size="14" text-anchor="middle">Level 1 SSTables</text>
  
  <!-- L2 SSTables -->
  <rect x="570" y="310" width="160" height="40" fill="#ffe0b2" stroke="#f57c00" stroke-width="1" rx="5"/>
  <text x="650" y="335" font-family="Arial" font-size="14" text-anchor="middle">Level 2 SSTables</text>
  
  <!-- Compaction -->
  <rect x="570" y="360" width="160" height="40" fill="#ffe0b2" stroke="#f57c00" stroke-width="1" rx="5"/>
  <text x="650" y="385" font-family="Arial" font-size="14" text-anchor="middle">Compaction Process</text>
  
  <!-- Arrows -->
  <!-- Parsing to Key-Value -->
  <path d="M 250 135 L 300 135" fill="none" stroke="#666" stroke-width="2" marker-end="url(#arrowhead)"/>
  
  <!-- Key-Value to LSM -->
  <path d="M 500 135 L 550 135" fill="none" stroke="#666" stroke-width="2" marker-end="url(#arrowhead)"/>
  
  <!-- MemTable to L0 -->
  <path d="M 650 150 L 650 210" fill="none" stroke="#666" stroke-width="2" marker-end="url(#arrowhead)"/>
  
  <!-- L0 to L1 -->
  <path d="M 650 250 L 650 260" fill="none" stroke="#666" stroke-width="2" marker-end="url(#arrowhead)"/>
  
  <!-- L1 to L2 -->
  <path d="M 650 300 L 650 310" fill="none" stroke="#666" stroke-width="2" marker-end="url(#arrowhead)"/>
  
  <!-- Compaction arrows -->
  <path d="M 570 380 L 550 380 L 550 230 L 570 230" fill="none" stroke="#666" stroke-width="2" stroke-dasharray="5,5"/>
  <path d="M 570 380 L 550 380 L 550 280 L 570 280" fill="none" stroke="#666" stroke-width="2" stroke-dasharray="5,5"/>
  <path d="M 570 380 L 550 380 L 550 330 L 570 330" fill="none" stroke="#666" stroke-width="2" stroke-dasharray="5,5"/>
  
  <!-- Example Query -->
  <rect x="50" y="230" width="450" height="190" fill="#f5f5f5" stroke="#9e9e9e" stroke-width="2" rx="10"/>
  <text x="275" y="255" font-family="Arial" font-size="16" font-weight="bold" text-anchor="middle">Example Query Flow</text>
  
  <!-- Original Query -->
  <rect x="70" y="270" width="410" height="30" fill="#e0e0e0" stroke="#9e9e9e" stroke-width="1" rx="5"/>
  <text x="275" y="290" font-family="Arial" font-size="14" text-anchor="middle">SELECT name FROM users WHERE age > 21</text>
  
  <!-- AST -->
  <rect x="70" y="310" width="190" height="90" fill="#e0e0e0" stroke="#9e9e9e" stroke-width="1" rx="5"/>
  <text x="165" y="325" font-family="Arial" font-size="12" text-anchor="middle">Abstract Syntax Tree</text>
  <text x="165" y="345" font-family="Arial" font-size="10" text-anchor="middle">SELECT</text>
  <text x="165" y="360" font-family="Arial" font-size="10" text-anchor="middle">└── columns: [name]</text>
  <text x="165" y="375" font-family="Arial" font-size="10" text-anchor="middle">└── FROM: users</text>
  <text x="165" y="390" font-family="Arial" font-size="10" text-anchor="middle">└── WHERE: age > 21</text>
  
  <!-- KV Pair -->
  <rect x="290" y="310" width="190" height="90" fill="#e0e0e0" stroke="#9e9e9e" stroke-width="1" rx="5"/>
  <text x="385" y="325" font-family="Arial" font-size="12" text-anchor="middle">Key-Value Pair</text>
  <text x="385" y="345" font-family="Arial" font-size="10" text-anchor="middle">Key: "query:1234567890"</text>
  <text x="385" y="360" font-family="Arial" font-size="10" text-anchor="middle">Value: {</text>
  <text x="385" y="375" font-family="Arial" font-size="10" text-anchor="middle">  "type": "SELECT",</text>
  <text x="385" y="390" font-family="Arial" font-size="10" text-anchor="middle">  "table": "users", ... }</text>
  
  <!-- Definitions -->
  <defs>
    <marker id="arrowhead" markerWidth="10" markerHeight="7" refX="9" refY="3.5" orient="auto">
      <polygon points="0 0, 10 3.5, 0 7" fill="#666"/>
    </marker>
  </defs>
</svg>
